%TF.GenerationSoftware,KiCad,Pcbnew,(5.1.10-1-10_14)*%
%TF.CreationDate,2021-05-18T16:18:39+02:00*%
%TF.ProjectId,dirac_delta,64697261-635f-4646-956c-74612e6b6963,rev?*%
%TF.SameCoordinates,Original*%
%TF.FileFunction,Legend,Bot*%
%TF.FilePolarity,Positive*%
%FSLAX46Y46*%
G04 Gerber Fmt 4.6, Leading zero omitted, Abs format (unit mm)*
G04 Created by KiCad (PCBNEW (5.1.10-1-10_14)) date 2021-05-18 16:18:39*
%MOMM*%
%LPD*%
G01*
G04 APERTURE LIST*
%ADD10C,0.120000*%
%ADD11C,0.150000*%
G04 APERTURE END LIST*
D10*
%TO.C,Y2*%
X72008000Y-45180000D02*
X68708000Y-45180000D01*
X68708000Y-45180000D02*
X68708000Y-41180000D01*
%TO.C,Y1*%
X72008000Y-40481000D02*
X68708000Y-40481000D01*
X68708000Y-40481000D02*
X68708000Y-36481000D01*
%TO.C,U2*%
X90465000Y-35031250D02*
X90465000Y-32581250D01*
X93685000Y-33231250D02*
X93685000Y-35031250D01*
%TO.C,U1*%
X76240000Y-44885000D02*
X75765000Y-44885000D01*
X82985000Y-37665000D02*
X82985000Y-38140000D01*
X82510000Y-37665000D02*
X82985000Y-37665000D01*
X75765000Y-37665000D02*
X75765000Y-38140000D01*
X76240000Y-37665000D02*
X75765000Y-37665000D01*
X82985000Y-44885000D02*
X82985000Y-44410000D01*
X82510000Y-44885000D02*
X82985000Y-44885000D01*
D11*
%TO.C,SW2*%
X78362500Y-62131250D02*
X83562500Y-62131250D01*
X83562500Y-62131250D02*
X83562500Y-56931250D01*
X83562500Y-56931250D02*
X78362500Y-56931250D01*
X78362500Y-56931250D02*
X78362500Y-62131250D01*
X81962500Y-59531250D02*
G75*
G03*
X81962500Y-59531250I-1000000J0D01*
G01*
%TO.C,SW1*%
X68043750Y-62131250D02*
X73243750Y-62131250D01*
X73243750Y-62131250D02*
X73243750Y-56931250D01*
X73243750Y-56931250D02*
X68043750Y-56931250D01*
X68043750Y-56931250D02*
X68043750Y-62131250D01*
X71643750Y-59531250D02*
G75*
G03*
X71643750Y-59531250I-1000000J0D01*
G01*
D10*
%TO.C,R5*%
X80903750Y-33904186D02*
X80903750Y-34358314D01*
X79433750Y-33904186D02*
X79433750Y-34358314D01*
%TO.C,R4*%
X78640000Y-54202064D02*
X78640000Y-53747936D01*
X80110000Y-54202064D02*
X80110000Y-53747936D01*
%TO.C,R3*%
X71496250Y-54202064D02*
X71496250Y-53747936D01*
X72966250Y-54202064D02*
X72966250Y-53747936D01*
%TO.C,R2*%
X77846250Y-29595814D02*
X77846250Y-29141686D01*
X79316250Y-29595814D02*
X79316250Y-29141686D01*
%TO.C,R1*%
X75465000Y-29595814D02*
X75465000Y-29141686D01*
X76935000Y-29595814D02*
X76935000Y-29141686D01*
%TO.C,L1*%
X76594128Y-34365000D02*
X77393372Y-34365000D01*
X76594128Y-35485000D02*
X77393372Y-35485000D01*
%TO.C,F1*%
X81767000Y-29431064D02*
X81767000Y-28226936D01*
X83587000Y-29431064D02*
X83587000Y-28226936D01*
%TO.C,D4*%
X61325000Y-55431250D02*
X61325000Y-51531250D01*
X59325000Y-55431250D02*
X59325000Y-51531250D01*
X61325000Y-55431250D02*
X59325000Y-55431250D01*
%TO.C,D3*%
X61325000Y-36381250D02*
X61325000Y-32481250D01*
X59325000Y-36381250D02*
X59325000Y-32481250D01*
X61325000Y-36381250D02*
X59325000Y-36381250D01*
%TO.C,D2*%
X42275000Y-55431250D02*
X42275000Y-51531250D01*
X40275000Y-55431250D02*
X40275000Y-51531250D01*
X42275000Y-55431250D02*
X40275000Y-55431250D01*
%TO.C,D1*%
X42275000Y-36381250D02*
X42275000Y-32481250D01*
X40275000Y-36381250D02*
X40275000Y-32481250D01*
X42275000Y-36381250D02*
X40275000Y-36381250D01*
%TO.C,C14*%
X81815000Y-54236252D02*
X81815000Y-53713748D01*
X83285000Y-54236252D02*
X83285000Y-53713748D01*
%TO.C,C13*%
X68640000Y-53713748D02*
X68640000Y-54236252D01*
X67170000Y-53713748D02*
X67170000Y-54236252D01*
%TO.C,C12*%
X91813748Y-37365000D02*
X92336252Y-37365000D01*
X91813748Y-38835000D02*
X92336252Y-38835000D01*
%TO.C,C11*%
X91813748Y-29427500D02*
X92336252Y-29427500D01*
X91813748Y-30897500D02*
X92336252Y-30897500D01*
%TO.C,C10*%
X66413748Y-40540000D02*
X66936252Y-40540000D01*
X66413748Y-42010000D02*
X66936252Y-42010000D01*
%TO.C,C9*%
X66413748Y-42921250D02*
X66936252Y-42921250D01*
X66413748Y-44391250D02*
X66936252Y-44391250D01*
%TO.C,C8*%
X76935000Y-48157498D02*
X76935000Y-48680002D01*
X75465000Y-48157498D02*
X75465000Y-48680002D01*
%TO.C,C7*%
X83285000Y-48157498D02*
X83285000Y-48680002D01*
X81815000Y-48157498D02*
X81815000Y-48680002D01*
%TO.C,C6*%
X73760000Y-48157498D02*
X73760000Y-48680002D01*
X72290000Y-48157498D02*
X72290000Y-48680002D01*
%TO.C,C5*%
X81815000Y-34392502D02*
X81815000Y-33869998D01*
X83285000Y-34392502D02*
X83285000Y-33869998D01*
%TO.C,C4*%
X66413748Y-35777500D02*
X66936252Y-35777500D01*
X66413748Y-37247500D02*
X66936252Y-37247500D01*
%TO.C,C3*%
X66413748Y-38158750D02*
X66936252Y-38158750D01*
X66413748Y-39628750D02*
X66936252Y-39628750D01*
%TO.C,C2*%
X69908750Y-34392502D02*
X69908750Y-33869998D01*
X71378750Y-34392502D02*
X71378750Y-33869998D01*
%TO.C,C1*%
X72290000Y-34392502D02*
X72290000Y-33869998D01*
X73760000Y-34392502D02*
X73760000Y-33869998D01*
%TO.C,Y2*%
D11*
X72784190Y-42703809D02*
X73260380Y-42703809D01*
X72260380Y-42370476D02*
X72784190Y-42703809D01*
X72260380Y-43037142D01*
X72355619Y-43322857D02*
X72308000Y-43370476D01*
X72260380Y-43465714D01*
X72260380Y-43703809D01*
X72308000Y-43799047D01*
X72355619Y-43846666D01*
X72450857Y-43894285D01*
X72546095Y-43894285D01*
X72688952Y-43846666D01*
X73260380Y-43275238D01*
X73260380Y-43894285D01*
%TO.C,Y1*%
X72784190Y-38004809D02*
X73260380Y-38004809D01*
X72260380Y-37671476D02*
X72784190Y-38004809D01*
X72260380Y-38338142D01*
X73260380Y-39195285D02*
X73260380Y-38623857D01*
X73260380Y-38909571D02*
X72260380Y-38909571D01*
X72403238Y-38814333D01*
X72498476Y-38719095D01*
X72546095Y-38623857D01*
%TO.C,MX4*%
X53673214Y-55094130D02*
X53673214Y-54094130D01*
X53339880Y-54808416D01*
X53006547Y-54094130D01*
X53006547Y-55094130D01*
X52625595Y-54094130D02*
X51958928Y-55094130D01*
X51958928Y-54094130D02*
X52625595Y-55094130D01*
X51149404Y-54427464D02*
X51149404Y-55094130D01*
X51387500Y-54046511D02*
X51625595Y-54760797D01*
X51006547Y-54760797D01*
%TO.C,MX3*%
X53673214Y-36044130D02*
X53673214Y-35044130D01*
X53339880Y-35758416D01*
X53006547Y-35044130D01*
X53006547Y-36044130D01*
X52625595Y-35044130D02*
X51958928Y-36044130D01*
X51958928Y-35044130D02*
X52625595Y-36044130D01*
X51673214Y-35044130D02*
X51054166Y-35044130D01*
X51387500Y-35425083D01*
X51244642Y-35425083D01*
X51149404Y-35472702D01*
X51101785Y-35520321D01*
X51054166Y-35615559D01*
X51054166Y-35853654D01*
X51101785Y-35948892D01*
X51149404Y-35996511D01*
X51244642Y-36044130D01*
X51530357Y-36044130D01*
X51625595Y-35996511D01*
X51673214Y-35948892D01*
%TO.C,MX2*%
X34623214Y-55094130D02*
X34623214Y-54094130D01*
X34289880Y-54808416D01*
X33956547Y-54094130D01*
X33956547Y-55094130D01*
X33575595Y-54094130D02*
X32908928Y-55094130D01*
X32908928Y-54094130D02*
X33575595Y-55094130D01*
X32575595Y-54189369D02*
X32527976Y-54141750D01*
X32432738Y-54094130D01*
X32194642Y-54094130D01*
X32099404Y-54141750D01*
X32051785Y-54189369D01*
X32004166Y-54284607D01*
X32004166Y-54379845D01*
X32051785Y-54522702D01*
X32623214Y-55094130D01*
X32004166Y-55094130D01*
%TO.C,MX1*%
X34623214Y-36044130D02*
X34623214Y-35044130D01*
X34289880Y-35758416D01*
X33956547Y-35044130D01*
X33956547Y-36044130D01*
X33575595Y-35044130D02*
X32908928Y-36044130D01*
X32908928Y-35044130D02*
X33575595Y-36044130D01*
X32004166Y-36044130D02*
X32575595Y-36044130D01*
X32289880Y-36044130D02*
X32289880Y-35044130D01*
X32385119Y-35186988D01*
X32480357Y-35282226D01*
X32575595Y-35329845D01*
%TO.C,USB1*%
X76350595Y-26164880D02*
X76350595Y-26974404D01*
X76302976Y-27069642D01*
X76255357Y-27117261D01*
X76160119Y-27164880D01*
X75969642Y-27164880D01*
X75874404Y-27117261D01*
X75826785Y-27069642D01*
X75779166Y-26974404D01*
X75779166Y-26164880D01*
X75350595Y-27117261D02*
X75207738Y-27164880D01*
X74969642Y-27164880D01*
X74874404Y-27117261D01*
X74826785Y-27069642D01*
X74779166Y-26974404D01*
X74779166Y-26879166D01*
X74826785Y-26783928D01*
X74874404Y-26736309D01*
X74969642Y-26688690D01*
X75160119Y-26641071D01*
X75255357Y-26593452D01*
X75302976Y-26545833D01*
X75350595Y-26450595D01*
X75350595Y-26355357D01*
X75302976Y-26260119D01*
X75255357Y-26212500D01*
X75160119Y-26164880D01*
X74922023Y-26164880D01*
X74779166Y-26212500D01*
X74017261Y-26641071D02*
X73874404Y-26688690D01*
X73826785Y-26736309D01*
X73779166Y-26831547D01*
X73779166Y-26974404D01*
X73826785Y-27069642D01*
X73874404Y-27117261D01*
X73969642Y-27164880D01*
X74350595Y-27164880D01*
X74350595Y-26164880D01*
X74017261Y-26164880D01*
X73922023Y-26212500D01*
X73874404Y-26260119D01*
X73826785Y-26355357D01*
X73826785Y-26450595D01*
X73874404Y-26545833D01*
X73922023Y-26593452D01*
X74017261Y-26641071D01*
X74350595Y-26641071D01*
X72826785Y-27164880D02*
X73398214Y-27164880D01*
X73112500Y-27164880D02*
X73112500Y-26164880D01*
X73207738Y-26307738D01*
X73302976Y-26402976D01*
X73398214Y-26450595D01*
%TO.C,U2*%
X88627380Y-33369345D02*
X89436904Y-33369345D01*
X89532142Y-33416964D01*
X89579761Y-33464583D01*
X89627380Y-33559821D01*
X89627380Y-33750297D01*
X89579761Y-33845535D01*
X89532142Y-33893154D01*
X89436904Y-33940773D01*
X88627380Y-33940773D01*
X88722619Y-34369345D02*
X88675000Y-34416964D01*
X88627380Y-34512202D01*
X88627380Y-34750297D01*
X88675000Y-34845535D01*
X88722619Y-34893154D01*
X88817857Y-34940773D01*
X88913095Y-34940773D01*
X89055952Y-34893154D01*
X89627380Y-34321726D01*
X89627380Y-34940773D01*
%TO.C,U1*%
X80136904Y-45547380D02*
X80136904Y-46356904D01*
X80089285Y-46452142D01*
X80041666Y-46499761D01*
X79946428Y-46547380D01*
X79755952Y-46547380D01*
X79660714Y-46499761D01*
X79613095Y-46452142D01*
X79565476Y-46356904D01*
X79565476Y-45547380D01*
X78565476Y-46547380D02*
X79136904Y-46547380D01*
X78851190Y-46547380D02*
X78851190Y-45547380D01*
X78946428Y-45690238D01*
X79041666Y-45785476D01*
X79136904Y-45833095D01*
%TO.C,SW2*%
X82295833Y-55872011D02*
X82152976Y-55919630D01*
X81914880Y-55919630D01*
X81819642Y-55872011D01*
X81772023Y-55824392D01*
X81724404Y-55729154D01*
X81724404Y-55633916D01*
X81772023Y-55538678D01*
X81819642Y-55491059D01*
X81914880Y-55443440D01*
X82105357Y-55395821D01*
X82200595Y-55348202D01*
X82248214Y-55300583D01*
X82295833Y-55205345D01*
X82295833Y-55110107D01*
X82248214Y-55014869D01*
X82200595Y-54967250D01*
X82105357Y-54919630D01*
X81867261Y-54919630D01*
X81724404Y-54967250D01*
X81391071Y-54919630D02*
X81152976Y-55919630D01*
X80962500Y-55205345D01*
X80772023Y-55919630D01*
X80533928Y-54919630D01*
X80200595Y-55014869D02*
X80152976Y-54967250D01*
X80057738Y-54919630D01*
X79819642Y-54919630D01*
X79724404Y-54967250D01*
X79676785Y-55014869D01*
X79629166Y-55110107D01*
X79629166Y-55205345D01*
X79676785Y-55348202D01*
X80248214Y-55919630D01*
X79629166Y-55919630D01*
%TO.C,SW1*%
X71977083Y-55872011D02*
X71834226Y-55919630D01*
X71596130Y-55919630D01*
X71500892Y-55872011D01*
X71453273Y-55824392D01*
X71405654Y-55729154D01*
X71405654Y-55633916D01*
X71453273Y-55538678D01*
X71500892Y-55491059D01*
X71596130Y-55443440D01*
X71786607Y-55395821D01*
X71881845Y-55348202D01*
X71929464Y-55300583D01*
X71977083Y-55205345D01*
X71977083Y-55110107D01*
X71929464Y-55014869D01*
X71881845Y-54967250D01*
X71786607Y-54919630D01*
X71548511Y-54919630D01*
X71405654Y-54967250D01*
X71072321Y-54919630D02*
X70834226Y-55919630D01*
X70643750Y-55205345D01*
X70453273Y-55919630D01*
X70215178Y-54919630D01*
X69310416Y-55919630D02*
X69881845Y-55919630D01*
X69596130Y-55919630D02*
X69596130Y-54919630D01*
X69691369Y-55062488D01*
X69786607Y-55157726D01*
X69881845Y-55205345D01*
%TO.C,R5*%
X78971130Y-33964583D02*
X78494940Y-33631250D01*
X78971130Y-33393154D02*
X77971130Y-33393154D01*
X77971130Y-33774107D01*
X78018750Y-33869345D01*
X78066369Y-33916964D01*
X78161607Y-33964583D01*
X78304464Y-33964583D01*
X78399702Y-33916964D01*
X78447321Y-33869345D01*
X78494940Y-33774107D01*
X78494940Y-33393154D01*
X77971130Y-34869345D02*
X77971130Y-34393154D01*
X78447321Y-34345535D01*
X78399702Y-34393154D01*
X78352083Y-34488392D01*
X78352083Y-34726488D01*
X78399702Y-34821726D01*
X78447321Y-34869345D01*
X78542559Y-34916964D01*
X78780654Y-34916964D01*
X78875892Y-34869345D01*
X78923511Y-34821726D01*
X78971130Y-34726488D01*
X78971130Y-34488392D01*
X78923511Y-34393154D01*
X78875892Y-34345535D01*
%TO.C,R4*%
X81477380Y-53808333D02*
X81001190Y-53475000D01*
X81477380Y-53236904D02*
X80477380Y-53236904D01*
X80477380Y-53617857D01*
X80525000Y-53713095D01*
X80572619Y-53760714D01*
X80667857Y-53808333D01*
X80810714Y-53808333D01*
X80905952Y-53760714D01*
X80953571Y-53713095D01*
X81001190Y-53617857D01*
X81001190Y-53236904D01*
X80810714Y-54665476D02*
X81477380Y-54665476D01*
X80429761Y-54427380D02*
X81144047Y-54189285D01*
X81144047Y-54808333D01*
%TO.C,R3*%
X74333630Y-53808333D02*
X73857440Y-53475000D01*
X74333630Y-53236904D02*
X73333630Y-53236904D01*
X73333630Y-53617857D01*
X73381250Y-53713095D01*
X73428869Y-53760714D01*
X73524107Y-53808333D01*
X73666964Y-53808333D01*
X73762202Y-53760714D01*
X73809821Y-53713095D01*
X73857440Y-53617857D01*
X73857440Y-53236904D01*
X73333630Y-54141666D02*
X73333630Y-54760714D01*
X73714583Y-54427380D01*
X73714583Y-54570238D01*
X73762202Y-54665476D01*
X73809821Y-54713095D01*
X73905059Y-54760714D01*
X74143154Y-54760714D01*
X74238392Y-54713095D01*
X74286011Y-54665476D01*
X74333630Y-54570238D01*
X74333630Y-54284523D01*
X74286011Y-54189285D01*
X74238392Y-54141666D01*
%TO.C,R2*%
X80683630Y-29202083D02*
X80207440Y-28868750D01*
X80683630Y-28630654D02*
X79683630Y-28630654D01*
X79683630Y-29011607D01*
X79731250Y-29106845D01*
X79778869Y-29154464D01*
X79874107Y-29202083D01*
X80016964Y-29202083D01*
X80112202Y-29154464D01*
X80159821Y-29106845D01*
X80207440Y-29011607D01*
X80207440Y-28630654D01*
X79778869Y-29583035D02*
X79731250Y-29630654D01*
X79683630Y-29725892D01*
X79683630Y-29963988D01*
X79731250Y-30059226D01*
X79778869Y-30106845D01*
X79874107Y-30154464D01*
X79969345Y-30154464D01*
X80112202Y-30106845D01*
X80683630Y-29535416D01*
X80683630Y-30154464D01*
%TO.C,R1*%
X78302380Y-29202083D02*
X77826190Y-28868750D01*
X78302380Y-28630654D02*
X77302380Y-28630654D01*
X77302380Y-29011607D01*
X77350000Y-29106845D01*
X77397619Y-29154464D01*
X77492857Y-29202083D01*
X77635714Y-29202083D01*
X77730952Y-29154464D01*
X77778571Y-29106845D01*
X77826190Y-29011607D01*
X77826190Y-28630654D01*
X78302380Y-30154464D02*
X78302380Y-29583035D01*
X78302380Y-29868750D02*
X77302380Y-29868750D01*
X77445238Y-29773511D01*
X77540476Y-29678273D01*
X77588095Y-29583035D01*
%TO.C,L1*%
X77160416Y-36927380D02*
X77636607Y-36927380D01*
X77636607Y-35927380D01*
X76303273Y-36927380D02*
X76874702Y-36927380D01*
X76588988Y-36927380D02*
X76588988Y-35927380D01*
X76684226Y-36070238D01*
X76779464Y-36165476D01*
X76874702Y-36213095D01*
%TO.C,F1*%
X84425571Y-28495666D02*
X84425571Y-28162333D01*
X84949380Y-28162333D02*
X83949380Y-28162333D01*
X83949380Y-28638523D01*
X84949380Y-29543285D02*
X84949380Y-28971857D01*
X84949380Y-29257571D02*
X83949380Y-29257571D01*
X84092238Y-29162333D01*
X84187476Y-29067095D01*
X84235095Y-28971857D01*
%TO.C,D4*%
X62777380Y-52443154D02*
X61777380Y-52443154D01*
X61777380Y-52681250D01*
X61825000Y-52824107D01*
X61920238Y-52919345D01*
X62015476Y-52966964D01*
X62205952Y-53014583D01*
X62348809Y-53014583D01*
X62539285Y-52966964D01*
X62634523Y-52919345D01*
X62729761Y-52824107D01*
X62777380Y-52681250D01*
X62777380Y-52443154D01*
X62110714Y-53871726D02*
X62777380Y-53871726D01*
X61729761Y-53633630D02*
X62444047Y-53395535D01*
X62444047Y-54014583D01*
%TO.C,D3*%
X62777380Y-33393154D02*
X61777380Y-33393154D01*
X61777380Y-33631250D01*
X61825000Y-33774107D01*
X61920238Y-33869345D01*
X62015476Y-33916964D01*
X62205952Y-33964583D01*
X62348809Y-33964583D01*
X62539285Y-33916964D01*
X62634523Y-33869345D01*
X62729761Y-33774107D01*
X62777380Y-33631250D01*
X62777380Y-33393154D01*
X61777380Y-34297916D02*
X61777380Y-34916964D01*
X62158333Y-34583630D01*
X62158333Y-34726488D01*
X62205952Y-34821726D01*
X62253571Y-34869345D01*
X62348809Y-34916964D01*
X62586904Y-34916964D01*
X62682142Y-34869345D01*
X62729761Y-34821726D01*
X62777380Y-34726488D01*
X62777380Y-34440773D01*
X62729761Y-34345535D01*
X62682142Y-34297916D01*
%TO.C,D2*%
X43727380Y-52443154D02*
X42727380Y-52443154D01*
X42727380Y-52681250D01*
X42775000Y-52824107D01*
X42870238Y-52919345D01*
X42965476Y-52966964D01*
X43155952Y-53014583D01*
X43298809Y-53014583D01*
X43489285Y-52966964D01*
X43584523Y-52919345D01*
X43679761Y-52824107D01*
X43727380Y-52681250D01*
X43727380Y-52443154D01*
X42822619Y-53395535D02*
X42775000Y-53443154D01*
X42727380Y-53538392D01*
X42727380Y-53776488D01*
X42775000Y-53871726D01*
X42822619Y-53919345D01*
X42917857Y-53966964D01*
X43013095Y-53966964D01*
X43155952Y-53919345D01*
X43727380Y-53347916D01*
X43727380Y-53966964D01*
%TO.C,D1*%
X43727380Y-33393154D02*
X42727380Y-33393154D01*
X42727380Y-33631250D01*
X42775000Y-33774107D01*
X42870238Y-33869345D01*
X42965476Y-33916964D01*
X43155952Y-33964583D01*
X43298809Y-33964583D01*
X43489285Y-33916964D01*
X43584523Y-33869345D01*
X43679761Y-33774107D01*
X43727380Y-33631250D01*
X43727380Y-33393154D01*
X43727380Y-34916964D02*
X43727380Y-34345535D01*
X43727380Y-34631250D02*
X42727380Y-34631250D01*
X42870238Y-34536011D01*
X42965476Y-34440773D01*
X43013095Y-34345535D01*
%TO.C,C14*%
X84587142Y-53332142D02*
X84634761Y-53284523D01*
X84682380Y-53141666D01*
X84682380Y-53046428D01*
X84634761Y-52903571D01*
X84539523Y-52808333D01*
X84444285Y-52760714D01*
X84253809Y-52713095D01*
X84110952Y-52713095D01*
X83920476Y-52760714D01*
X83825238Y-52808333D01*
X83730000Y-52903571D01*
X83682380Y-53046428D01*
X83682380Y-53141666D01*
X83730000Y-53284523D01*
X83777619Y-53332142D01*
X84682380Y-54284523D02*
X84682380Y-53713095D01*
X84682380Y-53998809D02*
X83682380Y-53998809D01*
X83825238Y-53903571D01*
X83920476Y-53808333D01*
X83968095Y-53713095D01*
X84015714Y-55141666D02*
X84682380Y-55141666D01*
X83634761Y-54903571D02*
X84349047Y-54665476D01*
X84349047Y-55284523D01*
%TO.C,C13*%
X66582142Y-53332142D02*
X66629761Y-53284523D01*
X66677380Y-53141666D01*
X66677380Y-53046428D01*
X66629761Y-52903571D01*
X66534523Y-52808333D01*
X66439285Y-52760714D01*
X66248809Y-52713095D01*
X66105952Y-52713095D01*
X65915476Y-52760714D01*
X65820238Y-52808333D01*
X65725000Y-52903571D01*
X65677380Y-53046428D01*
X65677380Y-53141666D01*
X65725000Y-53284523D01*
X65772619Y-53332142D01*
X66677380Y-54284523D02*
X66677380Y-53713095D01*
X66677380Y-53998809D02*
X65677380Y-53998809D01*
X65820238Y-53903571D01*
X65915476Y-53808333D01*
X65963095Y-53713095D01*
X65677380Y-54617857D02*
X65677380Y-55236904D01*
X66058333Y-54903571D01*
X66058333Y-55046428D01*
X66105952Y-55141666D01*
X66153571Y-55189285D01*
X66248809Y-55236904D01*
X66486904Y-55236904D01*
X66582142Y-55189285D01*
X66629761Y-55141666D01*
X66677380Y-55046428D01*
X66677380Y-54760714D01*
X66629761Y-54665476D01*
X66582142Y-54617857D01*
%TO.C,C12*%
X92717857Y-40137142D02*
X92765476Y-40184761D01*
X92908333Y-40232380D01*
X93003571Y-40232380D01*
X93146428Y-40184761D01*
X93241666Y-40089523D01*
X93289285Y-39994285D01*
X93336904Y-39803809D01*
X93336904Y-39660952D01*
X93289285Y-39470476D01*
X93241666Y-39375238D01*
X93146428Y-39280000D01*
X93003571Y-39232380D01*
X92908333Y-39232380D01*
X92765476Y-39280000D01*
X92717857Y-39327619D01*
X91765476Y-40232380D02*
X92336904Y-40232380D01*
X92051190Y-40232380D02*
X92051190Y-39232380D01*
X92146428Y-39375238D01*
X92241666Y-39470476D01*
X92336904Y-39518095D01*
X91384523Y-39327619D02*
X91336904Y-39280000D01*
X91241666Y-39232380D01*
X91003571Y-39232380D01*
X90908333Y-39280000D01*
X90860714Y-39327619D01*
X90813095Y-39422857D01*
X90813095Y-39518095D01*
X90860714Y-39660952D01*
X91432142Y-40232380D01*
X90813095Y-40232380D01*
%TO.C,C11*%
X92717857Y-32199642D02*
X92765476Y-32247261D01*
X92908333Y-32294880D01*
X93003571Y-32294880D01*
X93146428Y-32247261D01*
X93241666Y-32152023D01*
X93289285Y-32056785D01*
X93336904Y-31866309D01*
X93336904Y-31723452D01*
X93289285Y-31532976D01*
X93241666Y-31437738D01*
X93146428Y-31342500D01*
X93003571Y-31294880D01*
X92908333Y-31294880D01*
X92765476Y-31342500D01*
X92717857Y-31390119D01*
X91765476Y-32294880D02*
X92336904Y-32294880D01*
X92051190Y-32294880D02*
X92051190Y-31294880D01*
X92146428Y-31437738D01*
X92241666Y-31532976D01*
X92336904Y-31580595D01*
X90813095Y-32294880D02*
X91384523Y-32294880D01*
X91098809Y-32294880D02*
X91098809Y-31294880D01*
X91194047Y-31437738D01*
X91289285Y-31532976D01*
X91384523Y-31580595D01*
%TO.C,C10*%
X67317857Y-43312142D02*
X67365476Y-43359761D01*
X67508333Y-43407380D01*
X67603571Y-43407380D01*
X67746428Y-43359761D01*
X67841666Y-43264523D01*
X67889285Y-43169285D01*
X67936904Y-42978809D01*
X67936904Y-42835952D01*
X67889285Y-42645476D01*
X67841666Y-42550238D01*
X67746428Y-42455000D01*
X67603571Y-42407380D01*
X67508333Y-42407380D01*
X67365476Y-42455000D01*
X67317857Y-42502619D01*
X66365476Y-43407380D02*
X66936904Y-43407380D01*
X66651190Y-43407380D02*
X66651190Y-42407380D01*
X66746428Y-42550238D01*
X66841666Y-42645476D01*
X66936904Y-42693095D01*
X65746428Y-42407380D02*
X65651190Y-42407380D01*
X65555952Y-42455000D01*
X65508333Y-42502619D01*
X65460714Y-42597857D01*
X65413095Y-42788333D01*
X65413095Y-43026428D01*
X65460714Y-43216904D01*
X65508333Y-43312142D01*
X65555952Y-43359761D01*
X65651190Y-43407380D01*
X65746428Y-43407380D01*
X65841666Y-43359761D01*
X65889285Y-43312142D01*
X65936904Y-43216904D01*
X65984523Y-43026428D01*
X65984523Y-42788333D01*
X65936904Y-42597857D01*
X65889285Y-42502619D01*
X65841666Y-42455000D01*
X65746428Y-42407380D01*
%TO.C,C9*%
X66841666Y-45693392D02*
X66889285Y-45741011D01*
X67032142Y-45788630D01*
X67127380Y-45788630D01*
X67270238Y-45741011D01*
X67365476Y-45645773D01*
X67413095Y-45550535D01*
X67460714Y-45360059D01*
X67460714Y-45217202D01*
X67413095Y-45026726D01*
X67365476Y-44931488D01*
X67270238Y-44836250D01*
X67127380Y-44788630D01*
X67032142Y-44788630D01*
X66889285Y-44836250D01*
X66841666Y-44883869D01*
X66365476Y-45788630D02*
X66175000Y-45788630D01*
X66079761Y-45741011D01*
X66032142Y-45693392D01*
X65936904Y-45550535D01*
X65889285Y-45360059D01*
X65889285Y-44979107D01*
X65936904Y-44883869D01*
X65984523Y-44836250D01*
X66079761Y-44788630D01*
X66270238Y-44788630D01*
X66365476Y-44836250D01*
X66413095Y-44883869D01*
X66460714Y-44979107D01*
X66460714Y-45217202D01*
X66413095Y-45312440D01*
X66365476Y-45360059D01*
X66270238Y-45407678D01*
X66079761Y-45407678D01*
X65984523Y-45360059D01*
X65936904Y-45312440D01*
X65889285Y-45217202D01*
%TO.C,C8*%
X74877142Y-48252083D02*
X74924761Y-48204464D01*
X74972380Y-48061607D01*
X74972380Y-47966369D01*
X74924761Y-47823511D01*
X74829523Y-47728273D01*
X74734285Y-47680654D01*
X74543809Y-47633035D01*
X74400952Y-47633035D01*
X74210476Y-47680654D01*
X74115238Y-47728273D01*
X74020000Y-47823511D01*
X73972380Y-47966369D01*
X73972380Y-48061607D01*
X74020000Y-48204464D01*
X74067619Y-48252083D01*
X74400952Y-48823511D02*
X74353333Y-48728273D01*
X74305714Y-48680654D01*
X74210476Y-48633035D01*
X74162857Y-48633035D01*
X74067619Y-48680654D01*
X74020000Y-48728273D01*
X73972380Y-48823511D01*
X73972380Y-49013988D01*
X74020000Y-49109226D01*
X74067619Y-49156845D01*
X74162857Y-49204464D01*
X74210476Y-49204464D01*
X74305714Y-49156845D01*
X74353333Y-49109226D01*
X74400952Y-49013988D01*
X74400952Y-48823511D01*
X74448571Y-48728273D01*
X74496190Y-48680654D01*
X74591428Y-48633035D01*
X74781904Y-48633035D01*
X74877142Y-48680654D01*
X74924761Y-48728273D01*
X74972380Y-48823511D01*
X74972380Y-49013988D01*
X74924761Y-49109226D01*
X74877142Y-49156845D01*
X74781904Y-49204464D01*
X74591428Y-49204464D01*
X74496190Y-49156845D01*
X74448571Y-49109226D01*
X74400952Y-49013988D01*
%TO.C,C7*%
X81227142Y-48252083D02*
X81274761Y-48204464D01*
X81322380Y-48061607D01*
X81322380Y-47966369D01*
X81274761Y-47823511D01*
X81179523Y-47728273D01*
X81084285Y-47680654D01*
X80893809Y-47633035D01*
X80750952Y-47633035D01*
X80560476Y-47680654D01*
X80465238Y-47728273D01*
X80370000Y-47823511D01*
X80322380Y-47966369D01*
X80322380Y-48061607D01*
X80370000Y-48204464D01*
X80417619Y-48252083D01*
X80322380Y-48585416D02*
X80322380Y-49252083D01*
X81322380Y-48823511D01*
%TO.C,C6*%
X71702142Y-48252083D02*
X71749761Y-48204464D01*
X71797380Y-48061607D01*
X71797380Y-47966369D01*
X71749761Y-47823511D01*
X71654523Y-47728273D01*
X71559285Y-47680654D01*
X71368809Y-47633035D01*
X71225952Y-47633035D01*
X71035476Y-47680654D01*
X70940238Y-47728273D01*
X70845000Y-47823511D01*
X70797380Y-47966369D01*
X70797380Y-48061607D01*
X70845000Y-48204464D01*
X70892619Y-48252083D01*
X70797380Y-49109226D02*
X70797380Y-48918750D01*
X70845000Y-48823511D01*
X70892619Y-48775892D01*
X71035476Y-48680654D01*
X71225952Y-48633035D01*
X71606904Y-48633035D01*
X71702142Y-48680654D01*
X71749761Y-48728273D01*
X71797380Y-48823511D01*
X71797380Y-49013988D01*
X71749761Y-49109226D01*
X71702142Y-49156845D01*
X71606904Y-49204464D01*
X71368809Y-49204464D01*
X71273571Y-49156845D01*
X71225952Y-49109226D01*
X71178333Y-49013988D01*
X71178333Y-48823511D01*
X71225952Y-48728273D01*
X71273571Y-48680654D01*
X71368809Y-48633035D01*
%TO.C,C5*%
X84587142Y-33964583D02*
X84634761Y-33916964D01*
X84682380Y-33774107D01*
X84682380Y-33678869D01*
X84634761Y-33536011D01*
X84539523Y-33440773D01*
X84444285Y-33393154D01*
X84253809Y-33345535D01*
X84110952Y-33345535D01*
X83920476Y-33393154D01*
X83825238Y-33440773D01*
X83730000Y-33536011D01*
X83682380Y-33678869D01*
X83682380Y-33774107D01*
X83730000Y-33916964D01*
X83777619Y-33964583D01*
X83682380Y-34869345D02*
X83682380Y-34393154D01*
X84158571Y-34345535D01*
X84110952Y-34393154D01*
X84063333Y-34488392D01*
X84063333Y-34726488D01*
X84110952Y-34821726D01*
X84158571Y-34869345D01*
X84253809Y-34916964D01*
X84491904Y-34916964D01*
X84587142Y-34869345D01*
X84634761Y-34821726D01*
X84682380Y-34726488D01*
X84682380Y-34488392D01*
X84634761Y-34393154D01*
X84587142Y-34345535D01*
%TO.C,C4*%
X66841666Y-38549642D02*
X66889285Y-38597261D01*
X67032142Y-38644880D01*
X67127380Y-38644880D01*
X67270238Y-38597261D01*
X67365476Y-38502023D01*
X67413095Y-38406785D01*
X67460714Y-38216309D01*
X67460714Y-38073452D01*
X67413095Y-37882976D01*
X67365476Y-37787738D01*
X67270238Y-37692500D01*
X67127380Y-37644880D01*
X67032142Y-37644880D01*
X66889285Y-37692500D01*
X66841666Y-37740119D01*
X65984523Y-37978214D02*
X65984523Y-38644880D01*
X66222619Y-37597261D02*
X66460714Y-38311547D01*
X65841666Y-38311547D01*
%TO.C,C3*%
X66841666Y-40930892D02*
X66889285Y-40978511D01*
X67032142Y-41026130D01*
X67127380Y-41026130D01*
X67270238Y-40978511D01*
X67365476Y-40883273D01*
X67413095Y-40788035D01*
X67460714Y-40597559D01*
X67460714Y-40454702D01*
X67413095Y-40264226D01*
X67365476Y-40168988D01*
X67270238Y-40073750D01*
X67127380Y-40026130D01*
X67032142Y-40026130D01*
X66889285Y-40073750D01*
X66841666Y-40121369D01*
X66508333Y-40026130D02*
X65889285Y-40026130D01*
X66222619Y-40407083D01*
X66079761Y-40407083D01*
X65984523Y-40454702D01*
X65936904Y-40502321D01*
X65889285Y-40597559D01*
X65889285Y-40835654D01*
X65936904Y-40930892D01*
X65984523Y-40978511D01*
X66079761Y-41026130D01*
X66365476Y-41026130D01*
X66460714Y-40978511D01*
X66508333Y-40930892D01*
%TO.C,C2*%
X72680892Y-33964583D02*
X72728511Y-33916964D01*
X72776130Y-33774107D01*
X72776130Y-33678869D01*
X72728511Y-33536011D01*
X72633273Y-33440773D01*
X72538035Y-33393154D01*
X72347559Y-33345535D01*
X72204702Y-33345535D01*
X72014226Y-33393154D01*
X71918988Y-33440773D01*
X71823750Y-33536011D01*
X71776130Y-33678869D01*
X71776130Y-33774107D01*
X71823750Y-33916964D01*
X71871369Y-33964583D01*
X71871369Y-34345535D02*
X71823750Y-34393154D01*
X71776130Y-34488392D01*
X71776130Y-34726488D01*
X71823750Y-34821726D01*
X71871369Y-34869345D01*
X71966607Y-34916964D01*
X72061845Y-34916964D01*
X72204702Y-34869345D01*
X72776130Y-34297916D01*
X72776130Y-34916964D01*
%TO.C,C1*%
X75062142Y-33964583D02*
X75109761Y-33916964D01*
X75157380Y-33774107D01*
X75157380Y-33678869D01*
X75109761Y-33536011D01*
X75014523Y-33440773D01*
X74919285Y-33393154D01*
X74728809Y-33345535D01*
X74585952Y-33345535D01*
X74395476Y-33393154D01*
X74300238Y-33440773D01*
X74205000Y-33536011D01*
X74157380Y-33678869D01*
X74157380Y-33774107D01*
X74205000Y-33916964D01*
X74252619Y-33964583D01*
X75157380Y-34916964D02*
X75157380Y-34345535D01*
X75157380Y-34631250D02*
X74157380Y-34631250D01*
X74300238Y-34536011D01*
X74395476Y-34440773D01*
X74443095Y-34345535D01*
%TD*%
M02*
