%TF.GenerationSoftware,KiCad,Pcbnew,(5.1.10-1-10_14)*%
%TF.CreationDate,2021-05-18T16:18:39+02:00*%
%TF.ProjectId,dirac_delta,64697261-635f-4646-956c-74612e6b6963,rev?*%
%TF.SameCoordinates,Original*%
%TF.FileFunction,Soldermask,Bot*%
%TF.FilePolarity,Negative*%
%FSLAX46Y46*%
G04 Gerber Fmt 4.6, Leading zero omitted, Abs format (unit mm)*
G04 Created by KiCad (PCBNEW (5.1.10-1-10_14)) date 2021-05-18 16:18:39*
%MOMM*%
%LPD*%
G01*
G04 APERTURE LIST*
%ADD10R,1.200000X1.400000*%
%ADD11R,2.550000X2.500000*%
%ADD12C,1.750000*%
%ADD13C,3.000000*%
%ADD14C,3.987800*%
%ADD15R,0.600000X1.450000*%
%ADD16R,0.300000X1.450000*%
%ADD17C,0.650000*%
%ADD18R,0.650000X1.060000*%
%ADD19R,5.600000X5.600000*%
%ADD20R,1.800000X1.100000*%
%ADD21R,1.200000X0.900000*%
G04 APERTURE END LIST*
D10*
%TO.C,Y2*%
X71208000Y-44280000D03*
X71208000Y-42080000D03*
X69508000Y-42080000D03*
X69508000Y-44280000D03*
%TD*%
%TO.C,Y1*%
X71208000Y-39581000D03*
X71208000Y-37381000D03*
X69508000Y-37381000D03*
X69508000Y-39581000D03*
%TD*%
D11*
%TO.C,MX4*%
X58229500Y-46513750D03*
X45302500Y-49053750D03*
D12*
X57467500Y-51593750D03*
X47307500Y-51593750D03*
D13*
X48577500Y-49053750D03*
D14*
X52387500Y-51593750D03*
D13*
X54927500Y-46513750D03*
%TD*%
D11*
%TO.C,MX3*%
X58229500Y-27463750D03*
X45302500Y-30003750D03*
D12*
X57467500Y-32543750D03*
X47307500Y-32543750D03*
D13*
X48577500Y-30003750D03*
D14*
X52387500Y-32543750D03*
D13*
X54927500Y-27463750D03*
%TD*%
D11*
%TO.C,MX2*%
X39179500Y-46513750D03*
X26252500Y-49053750D03*
D12*
X38417500Y-51593750D03*
X28257500Y-51593750D03*
D13*
X29527500Y-49053750D03*
D14*
X33337500Y-51593750D03*
D13*
X35877500Y-46513750D03*
%TD*%
D11*
%TO.C,MX1*%
X39179500Y-27463750D03*
X26252500Y-30003750D03*
D12*
X38417500Y-32543750D03*
X28257500Y-32543750D03*
D13*
X29527500Y-30003750D03*
D14*
X33337500Y-32543750D03*
D13*
X35877500Y-27463750D03*
%TD*%
D15*
%TO.C,USB1*%
X77837500Y-25157500D03*
X71387500Y-25157500D03*
X77062500Y-25157500D03*
X72162500Y-25157500D03*
D16*
X72862500Y-25157500D03*
X76362500Y-25157500D03*
X73362500Y-25157500D03*
X75862500Y-25157500D03*
X73862500Y-25157500D03*
X75362500Y-25157500D03*
X74862500Y-25157500D03*
X74362500Y-25157500D03*
D17*
X77502500Y-23712500D03*
X71722500Y-23712500D03*
%TD*%
D18*
%TO.C,U2*%
X91125000Y-35231250D03*
X93025000Y-35231250D03*
X93025000Y-33031250D03*
X92075000Y-33031250D03*
X91125000Y-33031250D03*
%TD*%
D19*
%TO.C,U1*%
X79375000Y-41275000D03*
G36*
G01*
X76500000Y-45087500D02*
X76500000Y-44337500D01*
G75*
G02*
X76562500Y-44275000I62500J0D01*
G01*
X76687500Y-44275000D01*
G75*
G02*
X76750000Y-44337500I0J-62500D01*
G01*
X76750000Y-45087500D01*
G75*
G02*
X76687500Y-45150000I-62500J0D01*
G01*
X76562500Y-45150000D01*
G75*
G02*
X76500000Y-45087500I0J62500D01*
G01*
G37*
G36*
G01*
X77000000Y-45087500D02*
X77000000Y-44337500D01*
G75*
G02*
X77062500Y-44275000I62500J0D01*
G01*
X77187500Y-44275000D01*
G75*
G02*
X77250000Y-44337500I0J-62500D01*
G01*
X77250000Y-45087500D01*
G75*
G02*
X77187500Y-45150000I-62500J0D01*
G01*
X77062500Y-45150000D01*
G75*
G02*
X77000000Y-45087500I0J62500D01*
G01*
G37*
G36*
G01*
X77500000Y-45087500D02*
X77500000Y-44337500D01*
G75*
G02*
X77562500Y-44275000I62500J0D01*
G01*
X77687500Y-44275000D01*
G75*
G02*
X77750000Y-44337500I0J-62500D01*
G01*
X77750000Y-45087500D01*
G75*
G02*
X77687500Y-45150000I-62500J0D01*
G01*
X77562500Y-45150000D01*
G75*
G02*
X77500000Y-45087500I0J62500D01*
G01*
G37*
G36*
G01*
X78000000Y-45087500D02*
X78000000Y-44337500D01*
G75*
G02*
X78062500Y-44275000I62500J0D01*
G01*
X78187500Y-44275000D01*
G75*
G02*
X78250000Y-44337500I0J-62500D01*
G01*
X78250000Y-45087500D01*
G75*
G02*
X78187500Y-45150000I-62500J0D01*
G01*
X78062500Y-45150000D01*
G75*
G02*
X78000000Y-45087500I0J62500D01*
G01*
G37*
G36*
G01*
X78500000Y-45087500D02*
X78500000Y-44337500D01*
G75*
G02*
X78562500Y-44275000I62500J0D01*
G01*
X78687500Y-44275000D01*
G75*
G02*
X78750000Y-44337500I0J-62500D01*
G01*
X78750000Y-45087500D01*
G75*
G02*
X78687500Y-45150000I-62500J0D01*
G01*
X78562500Y-45150000D01*
G75*
G02*
X78500000Y-45087500I0J62500D01*
G01*
G37*
G36*
G01*
X79000000Y-45087500D02*
X79000000Y-44337500D01*
G75*
G02*
X79062500Y-44275000I62500J0D01*
G01*
X79187500Y-44275000D01*
G75*
G02*
X79250000Y-44337500I0J-62500D01*
G01*
X79250000Y-45087500D01*
G75*
G02*
X79187500Y-45150000I-62500J0D01*
G01*
X79062500Y-45150000D01*
G75*
G02*
X79000000Y-45087500I0J62500D01*
G01*
G37*
G36*
G01*
X79500000Y-45087500D02*
X79500000Y-44337500D01*
G75*
G02*
X79562500Y-44275000I62500J0D01*
G01*
X79687500Y-44275000D01*
G75*
G02*
X79750000Y-44337500I0J-62500D01*
G01*
X79750000Y-45087500D01*
G75*
G02*
X79687500Y-45150000I-62500J0D01*
G01*
X79562500Y-45150000D01*
G75*
G02*
X79500000Y-45087500I0J62500D01*
G01*
G37*
G36*
G01*
X80000000Y-45087500D02*
X80000000Y-44337500D01*
G75*
G02*
X80062500Y-44275000I62500J0D01*
G01*
X80187500Y-44275000D01*
G75*
G02*
X80250000Y-44337500I0J-62500D01*
G01*
X80250000Y-45087500D01*
G75*
G02*
X80187500Y-45150000I-62500J0D01*
G01*
X80062500Y-45150000D01*
G75*
G02*
X80000000Y-45087500I0J62500D01*
G01*
G37*
G36*
G01*
X80500000Y-45087500D02*
X80500000Y-44337500D01*
G75*
G02*
X80562500Y-44275000I62500J0D01*
G01*
X80687500Y-44275000D01*
G75*
G02*
X80750000Y-44337500I0J-62500D01*
G01*
X80750000Y-45087500D01*
G75*
G02*
X80687500Y-45150000I-62500J0D01*
G01*
X80562500Y-45150000D01*
G75*
G02*
X80500000Y-45087500I0J62500D01*
G01*
G37*
G36*
G01*
X81000000Y-45087500D02*
X81000000Y-44337500D01*
G75*
G02*
X81062500Y-44275000I62500J0D01*
G01*
X81187500Y-44275000D01*
G75*
G02*
X81250000Y-44337500I0J-62500D01*
G01*
X81250000Y-45087500D01*
G75*
G02*
X81187500Y-45150000I-62500J0D01*
G01*
X81062500Y-45150000D01*
G75*
G02*
X81000000Y-45087500I0J62500D01*
G01*
G37*
G36*
G01*
X81500000Y-45087500D02*
X81500000Y-44337500D01*
G75*
G02*
X81562500Y-44275000I62500J0D01*
G01*
X81687500Y-44275000D01*
G75*
G02*
X81750000Y-44337500I0J-62500D01*
G01*
X81750000Y-45087500D01*
G75*
G02*
X81687500Y-45150000I-62500J0D01*
G01*
X81562500Y-45150000D01*
G75*
G02*
X81500000Y-45087500I0J62500D01*
G01*
G37*
G36*
G01*
X82000000Y-45087500D02*
X82000000Y-44337500D01*
G75*
G02*
X82062500Y-44275000I62500J0D01*
G01*
X82187500Y-44275000D01*
G75*
G02*
X82250000Y-44337500I0J-62500D01*
G01*
X82250000Y-45087500D01*
G75*
G02*
X82187500Y-45150000I-62500J0D01*
G01*
X82062500Y-45150000D01*
G75*
G02*
X82000000Y-45087500I0J62500D01*
G01*
G37*
G36*
G01*
X82375000Y-44087500D02*
X82375000Y-43962500D01*
G75*
G02*
X82437500Y-43900000I62500J0D01*
G01*
X83187500Y-43900000D01*
G75*
G02*
X83250000Y-43962500I0J-62500D01*
G01*
X83250000Y-44087500D01*
G75*
G02*
X83187500Y-44150000I-62500J0D01*
G01*
X82437500Y-44150000D01*
G75*
G02*
X82375000Y-44087500I0J62500D01*
G01*
G37*
G36*
G01*
X82375000Y-43587500D02*
X82375000Y-43462500D01*
G75*
G02*
X82437500Y-43400000I62500J0D01*
G01*
X83187500Y-43400000D01*
G75*
G02*
X83250000Y-43462500I0J-62500D01*
G01*
X83250000Y-43587500D01*
G75*
G02*
X83187500Y-43650000I-62500J0D01*
G01*
X82437500Y-43650000D01*
G75*
G02*
X82375000Y-43587500I0J62500D01*
G01*
G37*
G36*
G01*
X82375000Y-43087500D02*
X82375000Y-42962500D01*
G75*
G02*
X82437500Y-42900000I62500J0D01*
G01*
X83187500Y-42900000D01*
G75*
G02*
X83250000Y-42962500I0J-62500D01*
G01*
X83250000Y-43087500D01*
G75*
G02*
X83187500Y-43150000I-62500J0D01*
G01*
X82437500Y-43150000D01*
G75*
G02*
X82375000Y-43087500I0J62500D01*
G01*
G37*
G36*
G01*
X82375000Y-42587500D02*
X82375000Y-42462500D01*
G75*
G02*
X82437500Y-42400000I62500J0D01*
G01*
X83187500Y-42400000D01*
G75*
G02*
X83250000Y-42462500I0J-62500D01*
G01*
X83250000Y-42587500D01*
G75*
G02*
X83187500Y-42650000I-62500J0D01*
G01*
X82437500Y-42650000D01*
G75*
G02*
X82375000Y-42587500I0J62500D01*
G01*
G37*
G36*
G01*
X82375000Y-42087500D02*
X82375000Y-41962500D01*
G75*
G02*
X82437500Y-41900000I62500J0D01*
G01*
X83187500Y-41900000D01*
G75*
G02*
X83250000Y-41962500I0J-62500D01*
G01*
X83250000Y-42087500D01*
G75*
G02*
X83187500Y-42150000I-62500J0D01*
G01*
X82437500Y-42150000D01*
G75*
G02*
X82375000Y-42087500I0J62500D01*
G01*
G37*
G36*
G01*
X82375000Y-41587500D02*
X82375000Y-41462500D01*
G75*
G02*
X82437500Y-41400000I62500J0D01*
G01*
X83187500Y-41400000D01*
G75*
G02*
X83250000Y-41462500I0J-62500D01*
G01*
X83250000Y-41587500D01*
G75*
G02*
X83187500Y-41650000I-62500J0D01*
G01*
X82437500Y-41650000D01*
G75*
G02*
X82375000Y-41587500I0J62500D01*
G01*
G37*
G36*
G01*
X82375000Y-41087500D02*
X82375000Y-40962500D01*
G75*
G02*
X82437500Y-40900000I62500J0D01*
G01*
X83187500Y-40900000D01*
G75*
G02*
X83250000Y-40962500I0J-62500D01*
G01*
X83250000Y-41087500D01*
G75*
G02*
X83187500Y-41150000I-62500J0D01*
G01*
X82437500Y-41150000D01*
G75*
G02*
X82375000Y-41087500I0J62500D01*
G01*
G37*
G36*
G01*
X82375000Y-40587500D02*
X82375000Y-40462500D01*
G75*
G02*
X82437500Y-40400000I62500J0D01*
G01*
X83187500Y-40400000D01*
G75*
G02*
X83250000Y-40462500I0J-62500D01*
G01*
X83250000Y-40587500D01*
G75*
G02*
X83187500Y-40650000I-62500J0D01*
G01*
X82437500Y-40650000D01*
G75*
G02*
X82375000Y-40587500I0J62500D01*
G01*
G37*
G36*
G01*
X82375000Y-40087500D02*
X82375000Y-39962500D01*
G75*
G02*
X82437500Y-39900000I62500J0D01*
G01*
X83187500Y-39900000D01*
G75*
G02*
X83250000Y-39962500I0J-62500D01*
G01*
X83250000Y-40087500D01*
G75*
G02*
X83187500Y-40150000I-62500J0D01*
G01*
X82437500Y-40150000D01*
G75*
G02*
X82375000Y-40087500I0J62500D01*
G01*
G37*
G36*
G01*
X82375000Y-39587500D02*
X82375000Y-39462500D01*
G75*
G02*
X82437500Y-39400000I62500J0D01*
G01*
X83187500Y-39400000D01*
G75*
G02*
X83250000Y-39462500I0J-62500D01*
G01*
X83250000Y-39587500D01*
G75*
G02*
X83187500Y-39650000I-62500J0D01*
G01*
X82437500Y-39650000D01*
G75*
G02*
X82375000Y-39587500I0J62500D01*
G01*
G37*
G36*
G01*
X82375000Y-39087500D02*
X82375000Y-38962500D01*
G75*
G02*
X82437500Y-38900000I62500J0D01*
G01*
X83187500Y-38900000D01*
G75*
G02*
X83250000Y-38962500I0J-62500D01*
G01*
X83250000Y-39087500D01*
G75*
G02*
X83187500Y-39150000I-62500J0D01*
G01*
X82437500Y-39150000D01*
G75*
G02*
X82375000Y-39087500I0J62500D01*
G01*
G37*
G36*
G01*
X82375000Y-38587500D02*
X82375000Y-38462500D01*
G75*
G02*
X82437500Y-38400000I62500J0D01*
G01*
X83187500Y-38400000D01*
G75*
G02*
X83250000Y-38462500I0J-62500D01*
G01*
X83250000Y-38587500D01*
G75*
G02*
X83187500Y-38650000I-62500J0D01*
G01*
X82437500Y-38650000D01*
G75*
G02*
X82375000Y-38587500I0J62500D01*
G01*
G37*
G36*
G01*
X82000000Y-38212500D02*
X82000000Y-37462500D01*
G75*
G02*
X82062500Y-37400000I62500J0D01*
G01*
X82187500Y-37400000D01*
G75*
G02*
X82250000Y-37462500I0J-62500D01*
G01*
X82250000Y-38212500D01*
G75*
G02*
X82187500Y-38275000I-62500J0D01*
G01*
X82062500Y-38275000D01*
G75*
G02*
X82000000Y-38212500I0J62500D01*
G01*
G37*
G36*
G01*
X81500000Y-38212500D02*
X81500000Y-37462500D01*
G75*
G02*
X81562500Y-37400000I62500J0D01*
G01*
X81687500Y-37400000D01*
G75*
G02*
X81750000Y-37462500I0J-62500D01*
G01*
X81750000Y-38212500D01*
G75*
G02*
X81687500Y-38275000I-62500J0D01*
G01*
X81562500Y-38275000D01*
G75*
G02*
X81500000Y-38212500I0J62500D01*
G01*
G37*
G36*
G01*
X81000000Y-38212500D02*
X81000000Y-37462500D01*
G75*
G02*
X81062500Y-37400000I62500J0D01*
G01*
X81187500Y-37400000D01*
G75*
G02*
X81250000Y-37462500I0J-62500D01*
G01*
X81250000Y-38212500D01*
G75*
G02*
X81187500Y-38275000I-62500J0D01*
G01*
X81062500Y-38275000D01*
G75*
G02*
X81000000Y-38212500I0J62500D01*
G01*
G37*
G36*
G01*
X80500000Y-38212500D02*
X80500000Y-37462500D01*
G75*
G02*
X80562500Y-37400000I62500J0D01*
G01*
X80687500Y-37400000D01*
G75*
G02*
X80750000Y-37462500I0J-62500D01*
G01*
X80750000Y-38212500D01*
G75*
G02*
X80687500Y-38275000I-62500J0D01*
G01*
X80562500Y-38275000D01*
G75*
G02*
X80500000Y-38212500I0J62500D01*
G01*
G37*
G36*
G01*
X80000000Y-38212500D02*
X80000000Y-37462500D01*
G75*
G02*
X80062500Y-37400000I62500J0D01*
G01*
X80187500Y-37400000D01*
G75*
G02*
X80250000Y-37462500I0J-62500D01*
G01*
X80250000Y-38212500D01*
G75*
G02*
X80187500Y-38275000I-62500J0D01*
G01*
X80062500Y-38275000D01*
G75*
G02*
X80000000Y-38212500I0J62500D01*
G01*
G37*
G36*
G01*
X79500000Y-38212500D02*
X79500000Y-37462500D01*
G75*
G02*
X79562500Y-37400000I62500J0D01*
G01*
X79687500Y-37400000D01*
G75*
G02*
X79750000Y-37462500I0J-62500D01*
G01*
X79750000Y-38212500D01*
G75*
G02*
X79687500Y-38275000I-62500J0D01*
G01*
X79562500Y-38275000D01*
G75*
G02*
X79500000Y-38212500I0J62500D01*
G01*
G37*
G36*
G01*
X79000000Y-38212500D02*
X79000000Y-37462500D01*
G75*
G02*
X79062500Y-37400000I62500J0D01*
G01*
X79187500Y-37400000D01*
G75*
G02*
X79250000Y-37462500I0J-62500D01*
G01*
X79250000Y-38212500D01*
G75*
G02*
X79187500Y-38275000I-62500J0D01*
G01*
X79062500Y-38275000D01*
G75*
G02*
X79000000Y-38212500I0J62500D01*
G01*
G37*
G36*
G01*
X78500000Y-38212500D02*
X78500000Y-37462500D01*
G75*
G02*
X78562500Y-37400000I62500J0D01*
G01*
X78687500Y-37400000D01*
G75*
G02*
X78750000Y-37462500I0J-62500D01*
G01*
X78750000Y-38212500D01*
G75*
G02*
X78687500Y-38275000I-62500J0D01*
G01*
X78562500Y-38275000D01*
G75*
G02*
X78500000Y-38212500I0J62500D01*
G01*
G37*
G36*
G01*
X78000000Y-38212500D02*
X78000000Y-37462500D01*
G75*
G02*
X78062500Y-37400000I62500J0D01*
G01*
X78187500Y-37400000D01*
G75*
G02*
X78250000Y-37462500I0J-62500D01*
G01*
X78250000Y-38212500D01*
G75*
G02*
X78187500Y-38275000I-62500J0D01*
G01*
X78062500Y-38275000D01*
G75*
G02*
X78000000Y-38212500I0J62500D01*
G01*
G37*
G36*
G01*
X77500000Y-38212500D02*
X77500000Y-37462500D01*
G75*
G02*
X77562500Y-37400000I62500J0D01*
G01*
X77687500Y-37400000D01*
G75*
G02*
X77750000Y-37462500I0J-62500D01*
G01*
X77750000Y-38212500D01*
G75*
G02*
X77687500Y-38275000I-62500J0D01*
G01*
X77562500Y-38275000D01*
G75*
G02*
X77500000Y-38212500I0J62500D01*
G01*
G37*
G36*
G01*
X77000000Y-38212500D02*
X77000000Y-37462500D01*
G75*
G02*
X77062500Y-37400000I62500J0D01*
G01*
X77187500Y-37400000D01*
G75*
G02*
X77250000Y-37462500I0J-62500D01*
G01*
X77250000Y-38212500D01*
G75*
G02*
X77187500Y-38275000I-62500J0D01*
G01*
X77062500Y-38275000D01*
G75*
G02*
X77000000Y-38212500I0J62500D01*
G01*
G37*
G36*
G01*
X76500000Y-38212500D02*
X76500000Y-37462500D01*
G75*
G02*
X76562500Y-37400000I62500J0D01*
G01*
X76687500Y-37400000D01*
G75*
G02*
X76750000Y-37462500I0J-62500D01*
G01*
X76750000Y-38212500D01*
G75*
G02*
X76687500Y-38275000I-62500J0D01*
G01*
X76562500Y-38275000D01*
G75*
G02*
X76500000Y-38212500I0J62500D01*
G01*
G37*
G36*
G01*
X75500000Y-38587500D02*
X75500000Y-38462500D01*
G75*
G02*
X75562500Y-38400000I62500J0D01*
G01*
X76312500Y-38400000D01*
G75*
G02*
X76375000Y-38462500I0J-62500D01*
G01*
X76375000Y-38587500D01*
G75*
G02*
X76312500Y-38650000I-62500J0D01*
G01*
X75562500Y-38650000D01*
G75*
G02*
X75500000Y-38587500I0J62500D01*
G01*
G37*
G36*
G01*
X75500000Y-39087500D02*
X75500000Y-38962500D01*
G75*
G02*
X75562500Y-38900000I62500J0D01*
G01*
X76312500Y-38900000D01*
G75*
G02*
X76375000Y-38962500I0J-62500D01*
G01*
X76375000Y-39087500D01*
G75*
G02*
X76312500Y-39150000I-62500J0D01*
G01*
X75562500Y-39150000D01*
G75*
G02*
X75500000Y-39087500I0J62500D01*
G01*
G37*
G36*
G01*
X75500000Y-39587500D02*
X75500000Y-39462500D01*
G75*
G02*
X75562500Y-39400000I62500J0D01*
G01*
X76312500Y-39400000D01*
G75*
G02*
X76375000Y-39462500I0J-62500D01*
G01*
X76375000Y-39587500D01*
G75*
G02*
X76312500Y-39650000I-62500J0D01*
G01*
X75562500Y-39650000D01*
G75*
G02*
X75500000Y-39587500I0J62500D01*
G01*
G37*
G36*
G01*
X75500000Y-40087500D02*
X75500000Y-39962500D01*
G75*
G02*
X75562500Y-39900000I62500J0D01*
G01*
X76312500Y-39900000D01*
G75*
G02*
X76375000Y-39962500I0J-62500D01*
G01*
X76375000Y-40087500D01*
G75*
G02*
X76312500Y-40150000I-62500J0D01*
G01*
X75562500Y-40150000D01*
G75*
G02*
X75500000Y-40087500I0J62500D01*
G01*
G37*
G36*
G01*
X75500000Y-40587500D02*
X75500000Y-40462500D01*
G75*
G02*
X75562500Y-40400000I62500J0D01*
G01*
X76312500Y-40400000D01*
G75*
G02*
X76375000Y-40462500I0J-62500D01*
G01*
X76375000Y-40587500D01*
G75*
G02*
X76312500Y-40650000I-62500J0D01*
G01*
X75562500Y-40650000D01*
G75*
G02*
X75500000Y-40587500I0J62500D01*
G01*
G37*
G36*
G01*
X75500000Y-41087500D02*
X75500000Y-40962500D01*
G75*
G02*
X75562500Y-40900000I62500J0D01*
G01*
X76312500Y-40900000D01*
G75*
G02*
X76375000Y-40962500I0J-62500D01*
G01*
X76375000Y-41087500D01*
G75*
G02*
X76312500Y-41150000I-62500J0D01*
G01*
X75562500Y-41150000D01*
G75*
G02*
X75500000Y-41087500I0J62500D01*
G01*
G37*
G36*
G01*
X75500000Y-41587500D02*
X75500000Y-41462500D01*
G75*
G02*
X75562500Y-41400000I62500J0D01*
G01*
X76312500Y-41400000D01*
G75*
G02*
X76375000Y-41462500I0J-62500D01*
G01*
X76375000Y-41587500D01*
G75*
G02*
X76312500Y-41650000I-62500J0D01*
G01*
X75562500Y-41650000D01*
G75*
G02*
X75500000Y-41587500I0J62500D01*
G01*
G37*
G36*
G01*
X75500000Y-42087500D02*
X75500000Y-41962500D01*
G75*
G02*
X75562500Y-41900000I62500J0D01*
G01*
X76312500Y-41900000D01*
G75*
G02*
X76375000Y-41962500I0J-62500D01*
G01*
X76375000Y-42087500D01*
G75*
G02*
X76312500Y-42150000I-62500J0D01*
G01*
X75562500Y-42150000D01*
G75*
G02*
X75500000Y-42087500I0J62500D01*
G01*
G37*
G36*
G01*
X75500000Y-42587500D02*
X75500000Y-42462500D01*
G75*
G02*
X75562500Y-42400000I62500J0D01*
G01*
X76312500Y-42400000D01*
G75*
G02*
X76375000Y-42462500I0J-62500D01*
G01*
X76375000Y-42587500D01*
G75*
G02*
X76312500Y-42650000I-62500J0D01*
G01*
X75562500Y-42650000D01*
G75*
G02*
X75500000Y-42587500I0J62500D01*
G01*
G37*
G36*
G01*
X75500000Y-43087500D02*
X75500000Y-42962500D01*
G75*
G02*
X75562500Y-42900000I62500J0D01*
G01*
X76312500Y-42900000D01*
G75*
G02*
X76375000Y-42962500I0J-62500D01*
G01*
X76375000Y-43087500D01*
G75*
G02*
X76312500Y-43150000I-62500J0D01*
G01*
X75562500Y-43150000D01*
G75*
G02*
X75500000Y-43087500I0J62500D01*
G01*
G37*
G36*
G01*
X75500000Y-43587500D02*
X75500000Y-43462500D01*
G75*
G02*
X75562500Y-43400000I62500J0D01*
G01*
X76312500Y-43400000D01*
G75*
G02*
X76375000Y-43462500I0J-62500D01*
G01*
X76375000Y-43587500D01*
G75*
G02*
X76312500Y-43650000I-62500J0D01*
G01*
X75562500Y-43650000D01*
G75*
G02*
X75500000Y-43587500I0J62500D01*
G01*
G37*
G36*
G01*
X75500000Y-44087500D02*
X75500000Y-43962500D01*
G75*
G02*
X75562500Y-43900000I62500J0D01*
G01*
X76312500Y-43900000D01*
G75*
G02*
X76375000Y-43962500I0J-62500D01*
G01*
X76375000Y-44087500D01*
G75*
G02*
X76312500Y-44150000I-62500J0D01*
G01*
X75562500Y-44150000D01*
G75*
G02*
X75500000Y-44087500I0J62500D01*
G01*
G37*
%TD*%
D20*
%TO.C,SW2*%
X77862500Y-57681250D03*
X84062500Y-61381250D03*
X77862500Y-61381250D03*
X84062500Y-57681250D03*
%TD*%
%TO.C,SW1*%
X67543750Y-57681250D03*
X73743750Y-61381250D03*
X67543750Y-61381250D03*
X73743750Y-57681250D03*
%TD*%
%TO.C,R5*%
G36*
G01*
X79718748Y-34531250D02*
X80618752Y-34531250D01*
G75*
G02*
X80868750Y-34781248I0J-249998D01*
G01*
X80868750Y-35306252D01*
G75*
G02*
X80618752Y-35556250I-249998J0D01*
G01*
X79718748Y-35556250D01*
G75*
G02*
X79468750Y-35306252I0J249998D01*
G01*
X79468750Y-34781248D01*
G75*
G02*
X79718748Y-34531250I249998J0D01*
G01*
G37*
G36*
G01*
X79718748Y-32706250D02*
X80618752Y-32706250D01*
G75*
G02*
X80868750Y-32956248I0J-249998D01*
G01*
X80868750Y-33481252D01*
G75*
G02*
X80618752Y-33731250I-249998J0D01*
G01*
X79718748Y-33731250D01*
G75*
G02*
X79468750Y-33481252I0J249998D01*
G01*
X79468750Y-32956248D01*
G75*
G02*
X79718748Y-32706250I249998J0D01*
G01*
G37*
%TD*%
%TO.C,R4*%
G36*
G01*
X79825002Y-53575000D02*
X78924998Y-53575000D01*
G75*
G02*
X78675000Y-53325002I0J249998D01*
G01*
X78675000Y-52799998D01*
G75*
G02*
X78924998Y-52550000I249998J0D01*
G01*
X79825002Y-52550000D01*
G75*
G02*
X80075000Y-52799998I0J-249998D01*
G01*
X80075000Y-53325002D01*
G75*
G02*
X79825002Y-53575000I-249998J0D01*
G01*
G37*
G36*
G01*
X79825002Y-55400000D02*
X78924998Y-55400000D01*
G75*
G02*
X78675000Y-55150002I0J249998D01*
G01*
X78675000Y-54624998D01*
G75*
G02*
X78924998Y-54375000I249998J0D01*
G01*
X79825002Y-54375000D01*
G75*
G02*
X80075000Y-54624998I0J-249998D01*
G01*
X80075000Y-55150002D01*
G75*
G02*
X79825002Y-55400000I-249998J0D01*
G01*
G37*
%TD*%
%TO.C,R3*%
G36*
G01*
X72681252Y-53575000D02*
X71781248Y-53575000D01*
G75*
G02*
X71531250Y-53325002I0J249998D01*
G01*
X71531250Y-52799998D01*
G75*
G02*
X71781248Y-52550000I249998J0D01*
G01*
X72681252Y-52550000D01*
G75*
G02*
X72931250Y-52799998I0J-249998D01*
G01*
X72931250Y-53325002D01*
G75*
G02*
X72681252Y-53575000I-249998J0D01*
G01*
G37*
G36*
G01*
X72681252Y-55400000D02*
X71781248Y-55400000D01*
G75*
G02*
X71531250Y-55150002I0J249998D01*
G01*
X71531250Y-54624998D01*
G75*
G02*
X71781248Y-54375000I249998J0D01*
G01*
X72681252Y-54375000D01*
G75*
G02*
X72931250Y-54624998I0J-249998D01*
G01*
X72931250Y-55150002D01*
G75*
G02*
X72681252Y-55400000I-249998J0D01*
G01*
G37*
%TD*%
%TO.C,R2*%
G36*
G01*
X79031252Y-28968750D02*
X78131248Y-28968750D01*
G75*
G02*
X77881250Y-28718752I0J249998D01*
G01*
X77881250Y-28193748D01*
G75*
G02*
X78131248Y-27943750I249998J0D01*
G01*
X79031252Y-27943750D01*
G75*
G02*
X79281250Y-28193748I0J-249998D01*
G01*
X79281250Y-28718752D01*
G75*
G02*
X79031252Y-28968750I-249998J0D01*
G01*
G37*
G36*
G01*
X79031252Y-30793750D02*
X78131248Y-30793750D01*
G75*
G02*
X77881250Y-30543752I0J249998D01*
G01*
X77881250Y-30018748D01*
G75*
G02*
X78131248Y-29768750I249998J0D01*
G01*
X79031252Y-29768750D01*
G75*
G02*
X79281250Y-30018748I0J-249998D01*
G01*
X79281250Y-30543752D01*
G75*
G02*
X79031252Y-30793750I-249998J0D01*
G01*
G37*
%TD*%
%TO.C,R1*%
G36*
G01*
X76650002Y-28968750D02*
X75749998Y-28968750D01*
G75*
G02*
X75500000Y-28718752I0J249998D01*
G01*
X75500000Y-28193748D01*
G75*
G02*
X75749998Y-27943750I249998J0D01*
G01*
X76650002Y-27943750D01*
G75*
G02*
X76900000Y-28193748I0J-249998D01*
G01*
X76900000Y-28718752D01*
G75*
G02*
X76650002Y-28968750I-249998J0D01*
G01*
G37*
G36*
G01*
X76650002Y-30793750D02*
X75749998Y-30793750D01*
G75*
G02*
X75500000Y-30543752I0J249998D01*
G01*
X75500000Y-30018748D01*
G75*
G02*
X75749998Y-29768750I249998J0D01*
G01*
X76650002Y-29768750D01*
G75*
G02*
X76900000Y-30018748I0J-249998D01*
G01*
X76900000Y-30543752D01*
G75*
G02*
X76650002Y-30793750I-249998J0D01*
G01*
G37*
%TD*%
%TO.C,L1*%
G36*
G01*
X77618750Y-35306250D02*
X77618750Y-34543750D01*
G75*
G02*
X77837500Y-34325000I218750J0D01*
G01*
X78275000Y-34325000D01*
G75*
G02*
X78493750Y-34543750I0J-218750D01*
G01*
X78493750Y-35306250D01*
G75*
G02*
X78275000Y-35525000I-218750J0D01*
G01*
X77837500Y-35525000D01*
G75*
G02*
X77618750Y-35306250I0J218750D01*
G01*
G37*
G36*
G01*
X75493750Y-35306250D02*
X75493750Y-34543750D01*
G75*
G02*
X75712500Y-34325000I218750J0D01*
G01*
X76150000Y-34325000D01*
G75*
G02*
X76368750Y-34543750I0J-218750D01*
G01*
X76368750Y-35306250D01*
G75*
G02*
X76150000Y-35525000I-218750J0D01*
G01*
X75712500Y-35525000D01*
G75*
G02*
X75493750Y-35306250I0J218750D01*
G01*
G37*
%TD*%
%TO.C,F1*%
G36*
G01*
X83302000Y-28054000D02*
X82052000Y-28054000D01*
G75*
G02*
X81802000Y-27804000I0J250000D01*
G01*
X81802000Y-27054000D01*
G75*
G02*
X82052000Y-26804000I250000J0D01*
G01*
X83302000Y-26804000D01*
G75*
G02*
X83552000Y-27054000I0J-250000D01*
G01*
X83552000Y-27804000D01*
G75*
G02*
X83302000Y-28054000I-250000J0D01*
G01*
G37*
G36*
G01*
X83302000Y-30854000D02*
X82052000Y-30854000D01*
G75*
G02*
X81802000Y-30604000I0J250000D01*
G01*
X81802000Y-29854000D01*
G75*
G02*
X82052000Y-29604000I250000J0D01*
G01*
X83302000Y-29604000D01*
G75*
G02*
X83552000Y-29854000I0J-250000D01*
G01*
X83552000Y-30604000D01*
G75*
G02*
X83302000Y-30854000I-250000J0D01*
G01*
G37*
%TD*%
D21*
%TO.C,D4*%
X60325000Y-51531250D03*
X60325000Y-54831250D03*
%TD*%
%TO.C,D3*%
X60325000Y-32481250D03*
X60325000Y-35781250D03*
%TD*%
%TO.C,D2*%
X41275000Y-51531250D03*
X41275000Y-54831250D03*
%TD*%
%TO.C,D1*%
X41275000Y-32481250D03*
X41275000Y-35781250D03*
%TD*%
%TO.C,C14*%
G36*
G01*
X83025000Y-53525000D02*
X82075000Y-53525000D01*
G75*
G02*
X81825000Y-53275000I0J250000D01*
G01*
X81825000Y-52775000D01*
G75*
G02*
X82075000Y-52525000I250000J0D01*
G01*
X83025000Y-52525000D01*
G75*
G02*
X83275000Y-52775000I0J-250000D01*
G01*
X83275000Y-53275000D01*
G75*
G02*
X83025000Y-53525000I-250000J0D01*
G01*
G37*
G36*
G01*
X83025000Y-55425000D02*
X82075000Y-55425000D01*
G75*
G02*
X81825000Y-55175000I0J250000D01*
G01*
X81825000Y-54675000D01*
G75*
G02*
X82075000Y-54425000I250000J0D01*
G01*
X83025000Y-54425000D01*
G75*
G02*
X83275000Y-54675000I0J-250000D01*
G01*
X83275000Y-55175000D01*
G75*
G02*
X83025000Y-55425000I-250000J0D01*
G01*
G37*
%TD*%
%TO.C,C13*%
G36*
G01*
X67430000Y-54425000D02*
X68380000Y-54425000D01*
G75*
G02*
X68630000Y-54675000I0J-250000D01*
G01*
X68630000Y-55175000D01*
G75*
G02*
X68380000Y-55425000I-250000J0D01*
G01*
X67430000Y-55425000D01*
G75*
G02*
X67180000Y-55175000I0J250000D01*
G01*
X67180000Y-54675000D01*
G75*
G02*
X67430000Y-54425000I250000J0D01*
G01*
G37*
G36*
G01*
X67430000Y-52525000D02*
X68380000Y-52525000D01*
G75*
G02*
X68630000Y-52775000I0J-250000D01*
G01*
X68630000Y-53275000D01*
G75*
G02*
X68380000Y-53525000I-250000J0D01*
G01*
X67430000Y-53525000D01*
G75*
G02*
X67180000Y-53275000I0J250000D01*
G01*
X67180000Y-52775000D01*
G75*
G02*
X67430000Y-52525000I250000J0D01*
G01*
G37*
%TD*%
%TO.C,C12*%
G36*
G01*
X92525000Y-38575000D02*
X92525000Y-37625000D01*
G75*
G02*
X92775000Y-37375000I250000J0D01*
G01*
X93275000Y-37375000D01*
G75*
G02*
X93525000Y-37625000I0J-250000D01*
G01*
X93525000Y-38575000D01*
G75*
G02*
X93275000Y-38825000I-250000J0D01*
G01*
X92775000Y-38825000D01*
G75*
G02*
X92525000Y-38575000I0J250000D01*
G01*
G37*
G36*
G01*
X90625000Y-38575000D02*
X90625000Y-37625000D01*
G75*
G02*
X90875000Y-37375000I250000J0D01*
G01*
X91375000Y-37375000D01*
G75*
G02*
X91625000Y-37625000I0J-250000D01*
G01*
X91625000Y-38575000D01*
G75*
G02*
X91375000Y-38825000I-250000J0D01*
G01*
X90875000Y-38825000D01*
G75*
G02*
X90625000Y-38575000I0J250000D01*
G01*
G37*
%TD*%
%TO.C,C11*%
G36*
G01*
X92525000Y-30637500D02*
X92525000Y-29687500D01*
G75*
G02*
X92775000Y-29437500I250000J0D01*
G01*
X93275000Y-29437500D01*
G75*
G02*
X93525000Y-29687500I0J-250000D01*
G01*
X93525000Y-30637500D01*
G75*
G02*
X93275000Y-30887500I-250000J0D01*
G01*
X92775000Y-30887500D01*
G75*
G02*
X92525000Y-30637500I0J250000D01*
G01*
G37*
G36*
G01*
X90625000Y-30637500D02*
X90625000Y-29687500D01*
G75*
G02*
X90875000Y-29437500I250000J0D01*
G01*
X91375000Y-29437500D01*
G75*
G02*
X91625000Y-29687500I0J-250000D01*
G01*
X91625000Y-30637500D01*
G75*
G02*
X91375000Y-30887500I-250000J0D01*
G01*
X90875000Y-30887500D01*
G75*
G02*
X90625000Y-30637500I0J250000D01*
G01*
G37*
%TD*%
%TO.C,C10*%
G36*
G01*
X67125000Y-41750000D02*
X67125000Y-40800000D01*
G75*
G02*
X67375000Y-40550000I250000J0D01*
G01*
X67875000Y-40550000D01*
G75*
G02*
X68125000Y-40800000I0J-250000D01*
G01*
X68125000Y-41750000D01*
G75*
G02*
X67875000Y-42000000I-250000J0D01*
G01*
X67375000Y-42000000D01*
G75*
G02*
X67125000Y-41750000I0J250000D01*
G01*
G37*
G36*
G01*
X65225000Y-41750000D02*
X65225000Y-40800000D01*
G75*
G02*
X65475000Y-40550000I250000J0D01*
G01*
X65975000Y-40550000D01*
G75*
G02*
X66225000Y-40800000I0J-250000D01*
G01*
X66225000Y-41750000D01*
G75*
G02*
X65975000Y-42000000I-250000J0D01*
G01*
X65475000Y-42000000D01*
G75*
G02*
X65225000Y-41750000I0J250000D01*
G01*
G37*
%TD*%
%TO.C,C9*%
G36*
G01*
X67125000Y-44131250D02*
X67125000Y-43181250D01*
G75*
G02*
X67375000Y-42931250I250000J0D01*
G01*
X67875000Y-42931250D01*
G75*
G02*
X68125000Y-43181250I0J-250000D01*
G01*
X68125000Y-44131250D01*
G75*
G02*
X67875000Y-44381250I-250000J0D01*
G01*
X67375000Y-44381250D01*
G75*
G02*
X67125000Y-44131250I0J250000D01*
G01*
G37*
G36*
G01*
X65225000Y-44131250D02*
X65225000Y-43181250D01*
G75*
G02*
X65475000Y-42931250I250000J0D01*
G01*
X65975000Y-42931250D01*
G75*
G02*
X66225000Y-43181250I0J-250000D01*
G01*
X66225000Y-44131250D01*
G75*
G02*
X65975000Y-44381250I-250000J0D01*
G01*
X65475000Y-44381250D01*
G75*
G02*
X65225000Y-44131250I0J250000D01*
G01*
G37*
%TD*%
%TO.C,C8*%
G36*
G01*
X75725000Y-48868750D02*
X76675000Y-48868750D01*
G75*
G02*
X76925000Y-49118750I0J-250000D01*
G01*
X76925000Y-49618750D01*
G75*
G02*
X76675000Y-49868750I-250000J0D01*
G01*
X75725000Y-49868750D01*
G75*
G02*
X75475000Y-49618750I0J250000D01*
G01*
X75475000Y-49118750D01*
G75*
G02*
X75725000Y-48868750I250000J0D01*
G01*
G37*
G36*
G01*
X75725000Y-46968750D02*
X76675000Y-46968750D01*
G75*
G02*
X76925000Y-47218750I0J-250000D01*
G01*
X76925000Y-47718750D01*
G75*
G02*
X76675000Y-47968750I-250000J0D01*
G01*
X75725000Y-47968750D01*
G75*
G02*
X75475000Y-47718750I0J250000D01*
G01*
X75475000Y-47218750D01*
G75*
G02*
X75725000Y-46968750I250000J0D01*
G01*
G37*
%TD*%
%TO.C,C7*%
G36*
G01*
X82075000Y-48868750D02*
X83025000Y-48868750D01*
G75*
G02*
X83275000Y-49118750I0J-250000D01*
G01*
X83275000Y-49618750D01*
G75*
G02*
X83025000Y-49868750I-250000J0D01*
G01*
X82075000Y-49868750D01*
G75*
G02*
X81825000Y-49618750I0J250000D01*
G01*
X81825000Y-49118750D01*
G75*
G02*
X82075000Y-48868750I250000J0D01*
G01*
G37*
G36*
G01*
X82075000Y-46968750D02*
X83025000Y-46968750D01*
G75*
G02*
X83275000Y-47218750I0J-250000D01*
G01*
X83275000Y-47718750D01*
G75*
G02*
X83025000Y-47968750I-250000J0D01*
G01*
X82075000Y-47968750D01*
G75*
G02*
X81825000Y-47718750I0J250000D01*
G01*
X81825000Y-47218750D01*
G75*
G02*
X82075000Y-46968750I250000J0D01*
G01*
G37*
%TD*%
%TO.C,C6*%
G36*
G01*
X72550000Y-48868750D02*
X73500000Y-48868750D01*
G75*
G02*
X73750000Y-49118750I0J-250000D01*
G01*
X73750000Y-49618750D01*
G75*
G02*
X73500000Y-49868750I-250000J0D01*
G01*
X72550000Y-49868750D01*
G75*
G02*
X72300000Y-49618750I0J250000D01*
G01*
X72300000Y-49118750D01*
G75*
G02*
X72550000Y-48868750I250000J0D01*
G01*
G37*
G36*
G01*
X72550000Y-46968750D02*
X73500000Y-46968750D01*
G75*
G02*
X73750000Y-47218750I0J-250000D01*
G01*
X73750000Y-47718750D01*
G75*
G02*
X73500000Y-47968750I-250000J0D01*
G01*
X72550000Y-47968750D01*
G75*
G02*
X72300000Y-47718750I0J250000D01*
G01*
X72300000Y-47218750D01*
G75*
G02*
X72550000Y-46968750I250000J0D01*
G01*
G37*
%TD*%
%TO.C,C5*%
G36*
G01*
X83025000Y-33681250D02*
X82075000Y-33681250D01*
G75*
G02*
X81825000Y-33431250I0J250000D01*
G01*
X81825000Y-32931250D01*
G75*
G02*
X82075000Y-32681250I250000J0D01*
G01*
X83025000Y-32681250D01*
G75*
G02*
X83275000Y-32931250I0J-250000D01*
G01*
X83275000Y-33431250D01*
G75*
G02*
X83025000Y-33681250I-250000J0D01*
G01*
G37*
G36*
G01*
X83025000Y-35581250D02*
X82075000Y-35581250D01*
G75*
G02*
X81825000Y-35331250I0J250000D01*
G01*
X81825000Y-34831250D01*
G75*
G02*
X82075000Y-34581250I250000J0D01*
G01*
X83025000Y-34581250D01*
G75*
G02*
X83275000Y-34831250I0J-250000D01*
G01*
X83275000Y-35331250D01*
G75*
G02*
X83025000Y-35581250I-250000J0D01*
G01*
G37*
%TD*%
%TO.C,C4*%
G36*
G01*
X67125000Y-36987500D02*
X67125000Y-36037500D01*
G75*
G02*
X67375000Y-35787500I250000J0D01*
G01*
X67875000Y-35787500D01*
G75*
G02*
X68125000Y-36037500I0J-250000D01*
G01*
X68125000Y-36987500D01*
G75*
G02*
X67875000Y-37237500I-250000J0D01*
G01*
X67375000Y-37237500D01*
G75*
G02*
X67125000Y-36987500I0J250000D01*
G01*
G37*
G36*
G01*
X65225000Y-36987500D02*
X65225000Y-36037500D01*
G75*
G02*
X65475000Y-35787500I250000J0D01*
G01*
X65975000Y-35787500D01*
G75*
G02*
X66225000Y-36037500I0J-250000D01*
G01*
X66225000Y-36987500D01*
G75*
G02*
X65975000Y-37237500I-250000J0D01*
G01*
X65475000Y-37237500D01*
G75*
G02*
X65225000Y-36987500I0J250000D01*
G01*
G37*
%TD*%
%TO.C,C3*%
G36*
G01*
X67125000Y-39368750D02*
X67125000Y-38418750D01*
G75*
G02*
X67375000Y-38168750I250000J0D01*
G01*
X67875000Y-38168750D01*
G75*
G02*
X68125000Y-38418750I0J-250000D01*
G01*
X68125000Y-39368750D01*
G75*
G02*
X67875000Y-39618750I-250000J0D01*
G01*
X67375000Y-39618750D01*
G75*
G02*
X67125000Y-39368750I0J250000D01*
G01*
G37*
G36*
G01*
X65225000Y-39368750D02*
X65225000Y-38418750D01*
G75*
G02*
X65475000Y-38168750I250000J0D01*
G01*
X65975000Y-38168750D01*
G75*
G02*
X66225000Y-38418750I0J-250000D01*
G01*
X66225000Y-39368750D01*
G75*
G02*
X65975000Y-39618750I-250000J0D01*
G01*
X65475000Y-39618750D01*
G75*
G02*
X65225000Y-39368750I0J250000D01*
G01*
G37*
%TD*%
%TO.C,C2*%
G36*
G01*
X71118750Y-33681250D02*
X70168750Y-33681250D01*
G75*
G02*
X69918750Y-33431250I0J250000D01*
G01*
X69918750Y-32931250D01*
G75*
G02*
X70168750Y-32681250I250000J0D01*
G01*
X71118750Y-32681250D01*
G75*
G02*
X71368750Y-32931250I0J-250000D01*
G01*
X71368750Y-33431250D01*
G75*
G02*
X71118750Y-33681250I-250000J0D01*
G01*
G37*
G36*
G01*
X71118750Y-35581250D02*
X70168750Y-35581250D01*
G75*
G02*
X69918750Y-35331250I0J250000D01*
G01*
X69918750Y-34831250D01*
G75*
G02*
X70168750Y-34581250I250000J0D01*
G01*
X71118750Y-34581250D01*
G75*
G02*
X71368750Y-34831250I0J-250000D01*
G01*
X71368750Y-35331250D01*
G75*
G02*
X71118750Y-35581250I-250000J0D01*
G01*
G37*
%TD*%
%TO.C,C1*%
G36*
G01*
X73500000Y-33681250D02*
X72550000Y-33681250D01*
G75*
G02*
X72300000Y-33431250I0J250000D01*
G01*
X72300000Y-32931250D01*
G75*
G02*
X72550000Y-32681250I250000J0D01*
G01*
X73500000Y-32681250D01*
G75*
G02*
X73750000Y-32931250I0J-250000D01*
G01*
X73750000Y-33431250D01*
G75*
G02*
X73500000Y-33681250I-250000J0D01*
G01*
G37*
G36*
G01*
X73500000Y-35581250D02*
X72550000Y-35581250D01*
G75*
G02*
X72300000Y-35331250I0J250000D01*
G01*
X72300000Y-34831250D01*
G75*
G02*
X72550000Y-34581250I250000J0D01*
G01*
X73500000Y-34581250D01*
G75*
G02*
X73750000Y-34831250I0J-250000D01*
G01*
X73750000Y-35331250D01*
G75*
G02*
X73500000Y-35581250I-250000J0D01*
G01*
G37*
%TD*%
M02*
