%TF.GenerationSoftware,KiCad,Pcbnew,(5.1.10-1-10_14)*%
%TF.CreationDate,2021-05-18T16:18:39+02:00*%
%TF.ProjectId,dirac_delta,64697261-635f-4646-956c-74612e6b6963,rev?*%
%TF.SameCoordinates,Original*%
%TF.FileFunction,Copper,L1,Top*%
%TF.FilePolarity,Positive*%
%FSLAX46Y46*%
G04 Gerber Fmt 4.6, Leading zero omitted, Abs format (unit mm)*
G04 Created by KiCad (PCBNEW (5.1.10-1-10_14)) date 2021-05-18 16:18:39*
%MOMM*%
%LPD*%
G01*
G04 APERTURE LIST*
%TA.AperFunction,ComponentPad*%
%ADD10O,1.000000X2.100000*%
%TD*%
%TA.AperFunction,ComponentPad*%
%ADD11O,1.000000X1.600000*%
%TD*%
%TA.AperFunction,ViaPad*%
%ADD12C,0.800000*%
%TD*%
%TA.AperFunction,Conductor*%
%ADD13C,0.254000*%
%TD*%
%TA.AperFunction,Conductor*%
%ADD14C,0.200000*%
%TD*%
G04 APERTURE END LIST*
D10*
%TO.P,USB1,13*%
%TO.N,GND*%
X70292500Y-24242500D03*
X78932500Y-24242500D03*
D11*
X70292500Y-20062500D03*
X78932500Y-20062500D03*
%TD*%
D12*
%TO.N,GND*%
X72644000Y-36576000D03*
X71847750Y-33181250D03*
%TO.N,VDD*%
X86868000Y-38100000D03*
X80899000Y-48514000D03*
X74549000Y-48514000D03*
X69850000Y-48514000D03*
X84074000Y-34036000D03*
X78105000Y-33528000D03*
%TO.N,NRST*%
X69170600Y-50673000D03*
X73348810Y-40937190D03*
%TO.N,BOOT0*%
X78613000Y-50546000D03*
X76581000Y-54864000D03*
%TO.N,USB_DP*%
X74285232Y-27803232D03*
X84341140Y-43437860D03*
%TO.N,USB_DN*%
X73542768Y-27060768D03*
X84341140Y-42387860D03*
%TO.N,ROW0*%
X63119000Y-35814000D03*
X74676000Y-38608000D03*
%TO.N,ROW1*%
X62611000Y-54864000D03*
X74675530Y-39561007D03*
%TO.N,COL0*%
X88709403Y-42037000D03*
X26289000Y-51689000D03*
%TO.N,COL1*%
X45339000Y-43180000D03*
X45339000Y-32512000D03*
X45339000Y-51435000D03*
X87757000Y-42037000D03*
%TD*%
D13*
%TO.N,GND*%
X71847750Y-35779750D02*
X71847750Y-33181250D01*
X72644000Y-36576000D02*
X71847750Y-35779750D01*
%TO.N,VDD*%
X86614000Y-47117000D02*
X85217000Y-48514000D01*
X86614000Y-47117000D02*
X86868000Y-46863000D01*
X86868000Y-38100000D02*
X86868000Y-46863000D01*
X85217000Y-48514000D02*
X80899000Y-48514000D01*
X74549000Y-48514000D02*
X69850000Y-48514000D01*
X80899000Y-48514000D02*
X74549000Y-48514000D01*
X86868000Y-38100000D02*
X86868000Y-34798000D01*
X86868000Y-34798000D02*
X86106000Y-34036000D01*
X79121000Y-34036000D02*
X78613000Y-33528000D01*
X78613000Y-33528000D02*
X78105000Y-33528000D01*
X84074000Y-34036000D02*
X79121000Y-34036000D01*
X86106000Y-34036000D02*
X84074000Y-34036000D01*
%TO.N,NRST*%
X69170599Y-48187887D02*
X69170599Y-48850599D01*
X69523887Y-47834599D02*
X69170599Y-48187887D01*
X71392991Y-47834599D02*
X69523887Y-47834599D01*
X73025000Y-46202590D02*
X71392991Y-47834599D01*
X69170599Y-50672999D02*
X69170600Y-50673000D01*
X69170599Y-48850599D02*
X69170599Y-50672999D01*
X73025000Y-46202590D02*
X73025000Y-41529000D01*
X73025000Y-41261000D02*
X73348810Y-40937190D01*
X73025000Y-41529000D02*
X73025000Y-41261000D01*
%TO.N,BOOT0*%
X78613000Y-50546000D02*
X76581000Y-52578000D01*
X76581000Y-52578000D02*
X76581000Y-54864000D01*
D14*
%TO.N,USB_DP*%
X86077000Y-42638200D02*
X85577340Y-43137860D01*
X86077000Y-36609800D02*
X86077000Y-42638200D01*
X73504000Y-34831800D02*
X74896200Y-36224000D01*
X85691200Y-36224000D02*
X86077000Y-36609800D01*
X85577340Y-43137860D02*
X84641140Y-43137860D01*
X73860967Y-27803232D02*
X73504000Y-28160199D01*
X84641140Y-43137860D02*
X84341140Y-43437860D01*
X74896200Y-36224000D02*
X85691200Y-36224000D01*
X73504000Y-28160199D02*
X73504000Y-34831800D01*
X74285232Y-27803232D02*
X73860967Y-27803232D01*
%TO.N,USB_DN*%
X84641140Y-42687860D02*
X84341140Y-42387860D01*
X85504800Y-36674000D02*
X85627000Y-36796200D01*
X73054000Y-35018200D02*
X74709800Y-36674000D01*
X73054000Y-27973801D02*
X73054000Y-35018200D01*
X85627000Y-42451800D02*
X85390940Y-42687860D01*
X73542768Y-27060768D02*
X73542768Y-27485033D01*
X85390940Y-42687860D02*
X84641140Y-42687860D01*
X85627000Y-36796200D02*
X85627000Y-42451800D01*
X74709800Y-36674000D02*
X85504800Y-36674000D01*
X73542768Y-27485033D02*
X73054000Y-27973801D01*
D13*
%TO.N,ROW0*%
X65908823Y-38603823D02*
X73475237Y-38603823D01*
X63119000Y-35814000D02*
X65908823Y-38603823D01*
X73479414Y-38608000D02*
X73475237Y-38603823D01*
X74676000Y-38608000D02*
X73479414Y-38608000D01*
%TO.N,ROW1*%
X69412736Y-47371000D02*
X68764190Y-48019546D01*
X68764190Y-48019546D02*
X68764189Y-48710811D01*
X73341993Y-39561007D02*
X72618590Y-40284410D01*
X72618590Y-45999410D02*
X71247000Y-47371000D01*
X71247000Y-47371000D02*
X69412736Y-47371000D01*
X72618590Y-40284410D02*
X72618590Y-45999410D01*
X68764189Y-48710811D02*
X62611000Y-54864000D01*
X74675530Y-39561007D02*
X73341993Y-39561007D01*
%TO.N,COL0*%
X26289000Y-51689000D02*
X26289000Y-56007000D01*
X26289000Y-56007000D02*
X33528000Y-63246000D01*
X33528000Y-63246000D02*
X87376000Y-63246000D01*
X87376000Y-63246000D02*
X88709403Y-61912597D01*
X88709403Y-61912597D02*
X88709403Y-61785403D01*
X88709403Y-42037000D02*
X88709403Y-61785403D01*
%TO.N,COL1*%
X45339000Y-43180000D02*
X45339000Y-32512000D01*
X87757000Y-44958000D02*
X87757000Y-42037000D01*
X86614000Y-58674000D02*
X87757000Y-57531000D01*
X87757000Y-57531000D02*
X87757000Y-44958000D01*
X47879000Y-58674000D02*
X86614000Y-58674000D01*
X45339000Y-56134000D02*
X47879000Y-58674000D01*
X45339000Y-51435000D02*
X45339000Y-56134000D01*
%TD*%
M02*
