M48
; DRILL file {KiCad (5.1.10-1-10_14)} date Tuesday, May 18, 2021 at 04:18:45 PM
; FORMAT={-:-/ absolute / inch / decimal}
; #@! TF.CreationDate,2021-05-18T16:18:45+02:00
; #@! TF.GenerationSoftware,Kicad,Pcbnew,(5.1.10-1-10_14)
; #@! TF.FileFunction,NonPlated,1,2,NPTH
FMAT,2
INCH
T1C0.0256
T2C0.0689
T3C0.1181
T4C0.1570
%
G90
G05
T1
X2.8237Y-0.9336
X3.0513Y-0.9336
T2
X1.1125Y-1.2812
X1.1125Y-2.0312
X1.5125Y-1.2812
X1.5125Y-2.0312
X1.8625Y-1.2812
X1.8625Y-2.0312
X2.2625Y-1.2812
X2.2625Y-2.0312
T3
X1.1625Y-1.1812
X1.1625Y-1.9312
X1.4125Y-1.0813
X1.4125Y-1.8313
X1.9125Y-1.1812
X1.9125Y-1.9312
X2.1625Y-1.0813
X2.1625Y-1.8313
T4
X1.3125Y-1.2812
X1.3125Y-2.0312
X2.0625Y-1.2812
X2.0625Y-2.0312
T0
M30
