M48
; DRILL file {KiCad (5.1.10-1-10_14)} date Tuesday, May 18, 2021 at 04:18:45 PM
; FORMAT={-:-/ absolute / inch / decimal}
; #@! TF.CreationDate,2021-05-18T16:18:45+02:00
; #@! TF.GenerationSoftware,Kicad,Pcbnew,(5.1.10-1-10_14)
; #@! TF.FileFunction,Plated,1,2,PTH
FMAT,2
INCH
T1C0.0157
T2C0.0236
%
G90
G05
T1
X1.035Y-2.035
X1.785Y-1.28
X1.785Y-1.7
X1.785Y-2.025
X2.465Y-2.16
X2.485Y-1.41
X2.7233Y-1.995
X2.75Y-1.91
X2.8287Y-1.3063
X2.86Y-1.44
X2.8877Y-1.6117
X2.8954Y-1.0654
X2.9246Y-1.0946
X2.935Y-1.91
X2.94Y-1.5575
X2.94Y-1.52
X3.015Y-2.16
X3.075Y-1.32
X3.095Y-1.99
X3.185Y-1.91
X3.31Y-1.34
X3.3205Y-1.6688
X3.3205Y-1.7102
X3.42Y-1.5
X3.455Y-1.655
X3.4925Y-1.655
T2
G00X2.7674Y-0.7781
M15
G01X2.7674Y-0.8017
M16
G05
G00X2.7674Y-0.9328
M15
G01X2.7674Y-0.9761
M16
G05
G00X3.1076Y-0.7781
M15
G01X3.1076Y-0.8017
M16
G05
G00X3.1076Y-0.9328
M15
G01X3.1076Y-0.9761
M16
G05
T0
M30
